<svg width="1686" height="1687" viewBox="0 0 1686 1687" fill="none" xmlns="http://www.w3.org/2000/svg">
<path d="M1686 309.923V1376.56C1686 1547.52 1547.49 1686.17 1376.53 1686.17H309.754C138.798 1686.17 0.147461 1547.52 0.147461 1376.56V309.923C0.147461 138.828 138.798 0.315796 309.754 0.315796H1376.53C1547.49 0.315796 1686 138.828 1686 309.923Z" fill="#202020"/>
<path d="M1354.77 1187.3L1172.3 1364.64C1058.19 1475.7 952.54 1481.52 855.484 1381.69L784.773 1308.76L685.776 1206.99L672.882 1193.82L672.327 1193.27L866.438 1003.87L870.875 999.432L1001.62 1132.54L1133.2 1003.18L690.768 548.401L556.831 679.981L686.608 811.976L683.142 815.304L521.336 973.365L489.031 1004.84L368.682 881.024L306.706 817.383C208.957 716.723 216.999 610.794 331.247 499.735L513.433 322.401C628.791 210.371 735.136 204.825 833.023 305.208L1381.8 869.655C1478.72 969.345 1469.71 1075.27 1354.77 1187.3Z" fill="white"/>
<path d="M685.773 1206.99L683.139 1206.16L671.354 1194.1L672.185 1193.13L672.878 1193.82L685.773 1206.99Z" fill="white"/>
</svg>
