<svg width="137" height="52" viewBox="0 0 137 52" fill="none" xmlns="http://www.w3.org/2000/svg">
<path d="M56.9877 24H60.9856V17.8693H64.3464C68.6951 17.8693 71.2249 15.2749 71.2249 11.4986C71.2249 7.74077 68.7413 5.09091 64.4479 5.09091H56.9877V24ZM60.9856 14.6655V8.35938H63.6816C65.9898 8.35938 67.107 9.61506 67.107 11.4986C67.107 13.3729 65.9898 14.6655 63.7001 14.6655H60.9856ZM80.7865 24.277C85.0891 24.277 87.7666 21.3317 87.7666 16.9645C87.7666 12.5696 85.0891 9.63352 80.7865 9.63352C76.484 9.63352 73.8064 12.5696 73.8064 16.9645C73.8064 21.3317 76.484 24.277 80.7865 24.277ZM80.805 21.2301C78.8199 21.2301 77.8043 19.4112 77.8043 16.9368C77.8043 14.4624 78.8199 12.6342 80.805 12.6342C82.7531 12.6342 83.7688 14.4624 83.7688 16.9368C83.7688 19.4112 82.7531 21.2301 80.805 21.2301ZM95.1169 15.8011C95.1262 13.973 96.2156 12.902 97.8037 12.902C99.3826 12.902 100.334 13.9361 100.324 15.6719V24H104.258V14.9702C104.258 11.6648 102.319 9.63352 99.3641 9.63352C97.259 9.63352 95.7355 10.6676 95.0985 12.3203H94.9323V9.81818H91.1837V24H95.1169V15.8011ZM115.76 9.81818H113.092V6.42045H109.159V9.81818H107.22V12.7727H109.159V20.1591C109.14 22.9382 111.033 24.3139 113.886 24.1939C114.902 24.157 115.622 23.9538 116.019 23.8246L115.4 20.8977C115.206 20.9347 114.791 21.027 114.422 21.027C113.637 21.027 113.092 20.7315 113.092 19.642V12.7727H115.76V9.81818ZM125.437 24.277C129.74 24.277 132.417 21.3317 132.417 16.9645C132.417 12.5696 129.74 9.63352 125.437 9.63352C121.135 9.63352 118.457 12.5696 118.457 16.9645C118.457 21.3317 121.135 24.277 125.437 24.277ZM125.456 21.2301C123.471 21.2301 122.455 19.4112 122.455 16.9368C122.455 14.4624 123.471 12.6342 125.456 12.6342C127.404 12.6342 128.42 14.4624 128.42 16.9368C128.42 19.4112 127.404 21.2301 125.456 21.2301Z" fill="white"/>
<path d="M62.0161 34.8407H63.4976C63.4529 33.2101 62.0111 32.0268 59.943 32.0268C57.8996 32.0268 56.3336 33.1951 56.3336 34.9501C56.3336 36.367 57.3478 37.1973 58.9834 37.6397L60.1866 37.9679C61.2753 38.2562 62.1155 38.6142 62.1155 39.519C62.1155 40.5133 61.166 41.1696 59.8584 41.1696C58.6752 41.1696 57.6908 40.6426 57.6013 39.5339H56.0601C56.1596 41.3784 57.5864 42.5169 59.8684 42.5169C62.2597 42.5169 63.6369 41.2591 63.6369 39.5339C63.6369 37.6994 62.0012 36.9885 60.7086 36.6703L59.7143 36.4118C58.9188 36.2079 57.8599 35.8351 57.8648 34.8606C57.8648 33.9956 58.6553 33.3542 59.9082 33.3542C61.0765 33.3542 61.9067 33.9011 62.0161 34.8407ZM69.504 42.502C71.1695 42.502 72.3478 41.6816 72.6858 40.4387L71.2789 40.1852C71.0104 40.9061 70.3641 41.274 69.5189 41.274C68.2462 41.274 67.3911 40.4487 67.3513 38.9771H72.7803V38.4501C72.7803 35.6909 71.1297 34.612 69.3996 34.612C67.2718 34.612 65.8698 36.2328 65.8698 38.5794C65.8698 40.9508 67.2519 42.502 69.504 42.502ZM67.3563 37.8635C67.416 36.7797 68.2015 35.84 69.4096 35.84C70.563 35.84 71.3187 36.6951 71.3236 37.8635H67.3563ZM78.5058 42.502C80.3105 42.502 81.4788 41.4182 81.6429 39.9316H80.1961C80.0072 40.7569 79.3659 41.2441 78.5157 41.2441C77.2579 41.2441 76.4475 40.1951 76.4475 38.5297C76.4475 36.894 77.2728 35.8649 78.5157 35.8649C79.4603 35.8649 80.037 36.4615 80.1961 37.1774H81.6429C81.4838 35.6362 80.2259 34.612 78.4909 34.612C76.3382 34.612 74.9461 36.2328 74.9461 38.5645C74.9461 40.8663 76.2884 42.502 78.5058 42.502ZM88.9294 39.1809C88.9344 40.4785 87.9699 41.095 87.1347 41.095C86.2149 41.095 85.5786 40.4288 85.5786 39.3897V34.7115H84.092V39.5687C84.092 41.4629 85.1311 42.4473 86.5977 42.4473C87.7462 42.4473 88.5267 41.8407 88.8797 41.0254H88.9592V42.3478H90.4209V34.7115H88.9294V39.1809ZM93.2778 42.3478H94.7643V37.6845C94.7643 36.6852 95.5349 35.9643 96.5888 35.9643C96.8971 35.9643 97.2451 36.019 97.3644 36.0538V34.6319C97.2153 34.612 96.9219 34.5971 96.733 34.5971C95.8381 34.5971 95.0725 35.1042 94.7941 35.9245H94.7145V34.7115H93.2778V42.3478ZM99.5103 42.3478H100.997V34.7115H99.5103V42.3478ZM100.261 33.5332C100.773 33.5332 101.201 33.1355 101.201 32.6483C101.201 32.161 100.773 31.7584 100.261 31.7584C99.744 31.7584 99.3214 32.161 99.3214 32.6483C99.3214 33.1355 99.744 33.5332 100.261 33.5332ZM107.421 34.7115H105.855V32.8819H104.368V34.7115H103.25V35.9047H104.368V40.4139C104.363 41.801 105.422 42.4721 106.596 42.4473C107.068 42.4423 107.386 42.3528 107.56 42.2882L107.292 41.0602C107.192 41.0801 107.008 41.1248 106.77 41.1248C106.287 41.1248 105.855 40.9657 105.855 40.1057V35.9047H107.421V34.7115ZM110.864 45.2115C112.092 45.2115 112.868 44.5701 113.31 43.367L116.467 34.7264L114.862 34.7115L112.928 40.6376H112.848L110.914 34.7115H109.323L112.117 42.4473L111.933 42.9544C111.555 43.9686 111.023 44.0531 110.208 43.8294L109.85 45.0474C110.029 45.127 110.417 45.2115 110.864 45.2115Z" fill="#619AF3"/>
<path d="M19.999 29C21.7249 29 23.124 27.6009 23.124 25.875C23.124 24.1491 21.7249 22.75 19.999 22.75C18.2731 22.75 16.874 24.1491 16.874 25.875C16.874 27.6009 18.2731 29 19.999 29Z" stroke="white" stroke-width="1.5" stroke-linecap="round" stroke-linejoin="round"/>
<path d="M19.999 29V32.75" stroke="white" stroke-width="1.5" stroke-linecap="round" stroke-linejoin="round"/>
<path d="M32.499 17.75H7.49902C6.80867 17.75 6.24902 18.3096 6.24902 19V36.5C6.24902 37.1904 6.80867 37.75 7.49902 37.75H32.499C33.1894 37.75 33.749 37.1904 33.749 36.5V19C33.749 18.3096 33.1894 17.75 32.499 17.75Z" stroke="white" stroke-width="1.5" stroke-linecap="round" stroke-linejoin="round"/>
<path d="M14.374 17.75V12.125C14.374 10.6332 14.9667 9.20242 16.0215 8.14752C17.0764 7.09263 18.5072 6.5 19.999 6.5C21.4909 6.5 22.9216 7.09263 23.9765 8.14752C25.0314 9.20242 25.624 10.6332 25.624 12.125V17.75" stroke="white" stroke-width="1.5" stroke-linecap="round" stroke-linejoin="round"/>
</svg>
