<svg width="2386" height="709" viewBox="0 0 2386 709" fill="none" xmlns="http://www.w3.org/2000/svg">
<path d="M460.32 4.20018V140.632H324.997V704.663H134.214V140.494H0V4.06152H460.32V4.20018Z" fill="#202020"/>
<path d="M416.647 72.1397L559.457 17.234C654.017 -19.0925 716.548 2.67568 747.19 82.3998L893.328 462.441C923.969 542.165 892.08 600.26 797.52 636.586L654.71 691.492C560.15 727.818 497.619 706.189 466.977 626.326L320.839 246.285C290.198 166.561 322.087 108.466 416.647 72.1397ZM705.733 491.142L588.851 186.665C583.86 173.909 574.154 170.166 559.596 175.85L522.853 189.993C508.295 195.539 503.442 204.828 508.434 217.584L625.455 521.922C630.446 534.817 640.152 538.422 654.71 532.737L691.452 518.595C705.872 513.187 710.725 503.898 705.733 491.142Z" fill="#202020"/>
<path d="M1007.3 455.786V704.525H816.377V4.20093H1140.4C1247.3 4.20093 1300.82 49.2624 1300.82 139.524V320.602C1300.82 389.65 1269.49 432.215 1206.96 448.299L1335.76 704.664H1130.7L1019.36 455.786H1007.3ZM1082.59 140.494H1007.3V326.009H1082.59C1100.75 326.009 1109.9 317.967 1109.9 302.022V164.481C1109.9 148.536 1100.75 140.494 1082.59 140.494Z" fill="#202020"/>
<path d="M1377.21 704.524V4.20018H1568.14V704.663H1377.21V704.524ZM1767.79 346.667L1905.2 704.524H1700.13L1569.25 346.667L1699.02 4.06152H1904.09L1767.79 346.667Z" fill="#202020"/>
<path d="M2146.31 568.232H2385.2V704.664H1955.39V4.20093H2375.5V140.633H2146.45V283.582H2343.89V420.014H2146.45V568.232H2146.31Z" fill="#202020"/>
</svg>
